<svg id="Layer_1" data-name="Layer 1" xmlns="http://www.w3.org/2000/svg" viewBox="0 0 495.5 142.14"><defs><style>.cls-1{fill:#25232f;}.cls-2{fill:#64c854;}.cls-3{fill:#236dd7;}</style></defs><path class="cls-1" d="M177.84,58.08h-8V76H159.78V27.15h18.13q8.64,0,13.33,3.86t4.7,10.89a15,15,0,0,1-2.16,8.33,14.77,14.77,0,0,1-6.56,5.31l10.56,19.94V76H187Zm-8-8.14h8.11A8.29,8.29,0,0,0,183.81,48a6.89,6.89,0,0,0,2.07-5.31,7.4,7.4,0,0,0-1.95-5.43q-2-2-6-2h-8.08Z"/><path class="cls-1" d="M235.73,54.73h-19.3V67.87h22.65V76H206.37V27.15H239V35.3H216.43V46.93h19.3Z"/><path class="cls-1" d="M288.68,76H278.62L259.05,43.84V76H249V27.15h10.05l19.61,32.17V27.15h10Z"/><path class="cls-1" d="M329.66,54.73H310.35V67.87H333V76H300.3V27.15h32.64V35.3H310.35V46.93h19.31Z"/><path class="cls-1" d="M380.78,58.25l6.65-31.1h10L386.63,76H376l-7.43-28L361,76H350.5l-10.82-48.8h10l6.63,31.22,7.58-26.52,9.37,0Z"/><path class="cls-1" d="M189,116.84H169.69V130h22.66v8.08H159.64V89.26h32.64V97.4H169.69V109H189Z"/><path class="cls-1" d="M238.87,122q-.57,7.88-5.82,12.4T219.23,139q-9.39,0-14.77-6.32t-5.37-17.34v-3a29.11,29.11,0,0,1,2.48-12.4,18.54,18.54,0,0,1,7.08-8.23,19.88,19.88,0,0,1,10.71-2.87q8.44,0,13.61,4.53t6,12.7H228.88c-.25-3.15-1.13-5.44-2.64-6.85s-3.79-2.13-6.88-2.13q-5,0-7.53,3.6t-2.55,11.18v3.68q0,7.9,2.39,11.56c1.59,2.44,4.12,3.66,7.56,3.66q4.65,0,7-2.13t2.63-6.59Z"/><path class="cls-1" d="M286.89,115a29.57,29.57,0,0,1-2.54,12.63,19.23,19.23,0,0,1-7.29,8.38,21.52,21.52,0,0,1-21.7,0,19.34,19.34,0,0,1-7.37-8.33,28.42,28.42,0,0,1-2.65-12.45v-2.41a29.3,29.3,0,0,1,2.6-12.68,19.2,19.2,0,0,1,7.34-8.41,21.45,21.45,0,0,1,21.68,0,19.33,19.33,0,0,1,7.34,8.41,29.23,29.23,0,0,1,2.59,12.65Zm-10.18-2.22q0-7.67-2.75-11.66a9.7,9.7,0,0,0-15.65,0q-2.74,3.94-2.78,11.55V115q0,7.47,2.74,11.59a8.94,8.94,0,0,0,7.91,4.12,8.85,8.85,0,0,0,7.78-4c1.81-2.65,2.72-6.5,2.75-11.58Z"/><path class="cls-1" d="M335.31,137.94H325.25l-19.57-32.1v32.1H295.63V89.15h10.05l19.61,32.17V89.15h10Z"/><path class="cls-1" d="M385.77,115a29.42,29.42,0,0,1-2.55,12.63,19.15,19.15,0,0,1-7.28,8.38,21.54,21.54,0,0,1-21.71,0,19.31,19.31,0,0,1-7.37-8.32,28.77,28.77,0,0,1-2.65-12.45V112.9a29.32,29.32,0,0,1,2.61-12.69,19.26,19.26,0,0,1,7.34-8.41,21.52,21.52,0,0,1,21.68,0,19.39,19.39,0,0,1,7.34,8.41,29.23,29.23,0,0,1,2.59,12.65Zm-10.19-2.21q0-7.68-2.75-11.66a9.7,9.7,0,0,0-15.65,0q-2.74,3.93-2.78,11.54V115q0,7.47,2.75,11.59a9.61,9.61,0,0,0,15.68.16q2.71-4,2.75-11.58Z"/><path class="cls-1" d="M407.56,89.17,419,118.07,430.4,89.13h13.2v48.8H433.51l.05-31.39L422.3,133.15h-6.58l-11.2-26.64,0,31.45H394.42V89.17Z"/><path class="cls-1" d="M471.81,110.25,482,89.15h11l-16,32.92v15.87H466.7v-16l-16-32.79h11Z"/><polygon class="cls-2" points="130.51 45.85 130.51 138.24 60.37 138.24 60.37 88.84 130.51 45.85"/><polygon class="cls-3" points="3.27 45.85 3.27 90.37 3.27 138.24 52.09 138.24 52.09 90.37 52.09 45.85 3.27 45.85"/><circle class="cls-3" cx="79.67" cy="27.15" r="24.26"/></svg>